<svg xmlns="http://www.w3.org/2000/svg" viewBox="0 0 64 64" role="img" aria-labelledby="title desc">
  <title id="title">WOOD system icon</title>
  <desc id="desc">Apple-inspired system icon for Eurcase WOOD series.</desc>
  <g fill="none" stroke="#1F2A24" stroke-width="3" stroke-linecap="round" stroke-linejoin="round">
    <path d="M11.5 31.8c0-11.7 8.8-20.3 20.6-20.3 11.1 0 20.4 7.4 20.4 18.6 0 12.6-10.5 22.4-23.2 22.4-10 0-17.8-8.7-17.8-20.7Z"/>
    <path d="M20.2 32.4c0-7.4 5.6-12.9 12.7-12.9 6.7 0 12.2 4.6 12.2 11.3 0 7.9-6.5 14.2-14.4 14.2-6.2 0-10.5-5.3-10.5-12.6Z"/>
    <path d="M26.6 32.7c0-4.1 3.1-7.1 7-7.1 3.5 0 6.4 2.5 6.4 6 0 4.3-3.6 7.7-7.9 7.7-3.3 0-5.5-2.8-5.5-6.6Z"/>
    <path d="M31.7 32.4c0-1.4 1.1-2.5 2.5-2.5 1.2 0 2.2.9 2.2 2.1 0 1.5-1.3 2.8-2.8 2.8-1.1 0-1.9-1-1.9-2.4Z"/>
    <path d="M17.3 24.3c2.7-5.4 8.7-9.1 15.9-8.8"/>
    <path d="M47.4 24.8c1.3 3.5 1.1 7.7-.8 11.9"/>
    <path d="M18.2 43.1c4.1 4.5 10.6 6.4 17.1 4.8"/>
  </g>
</svg>
